<svg version="1.1" id="Layer_1" xmlns="http://www.w3.org/2000/svg" xmlns:xlink="http://www.w3.org/1999/xlink" x="0px" y="0px"
	 width="100%" viewBox="0 0 329 297" enable-background="new 0 0 329 297" xml:space="preserve">
<path fill="#FFFFFF" opacity="1.000000" stroke="none" 
	d="
M324.190063,298.000000 
	C216.172729,298.000000 108.676346,298.000000 1.089975,298.000000 
	C1.089975,199.063385 1.089975,100.126648 1.089975,1.094959 
	C110.599609,1.094959 220.199326,1.094959 329.899536,1.094959 
	C329.899536,99.929596 329.899536,198.859329 329.899536,298.000000 
	C328.239044,298.000000 326.475037,298.000000 324.190063,298.000000 
M155.910110,230.011063 
	C166.273849,229.286392 176.637604,228.561722 187.579117,227.851242 
	C188.043060,227.514938 188.506989,227.178619 189.770630,226.970978 
	C190.846329,226.917694 191.922043,226.864395 193.655243,226.767517 
	C194.749924,226.809128 195.844604,226.850739 196.299866,227.187271 
	C192.421799,230.049377 191.701309,233.994339 191.939651,238.551727 
	C192.249023,244.467377 195.677383,248.878021 201.400223,249.947220 
	C206.493256,250.898743 213.500198,247.275955 214.937851,242.382187 
	C217.275970,234.423401 217.157822,230.083755 208.348206,224.253723 
	C209.570892,223.833755 210.785950,223.389816 212.017578,222.997910 
	C217.545776,221.238892 223.138184,219.660126 228.593048,217.698273 
	C233.973663,215.763153 235.164169,210.744919 235.772354,205.945923 
	C236.220337,202.411011 231.526550,197.934341 226.599579,197.081223 
	C219.186172,195.797592 211.681305,195.042114 203.918839,193.471603 
	C200.515701,190.286606 200.241211,197.217789 197.497192,195.631714 
	C196.862198,193.034256 196.261765,190.578110 195.594254,187.847626 
	C193.603897,188.941879 192.005524,189.820633 190.547623,190.622162 
	C189.578445,189.169357 188.867966,188.104324 188.001556,186.279266 
	C187.853455,183.865982 187.243149,182.516830 184.327454,183.789764 
	C181.068008,185.212769 177.684631,186.614822 174.214508,187.221756 
	C170.394653,187.889877 166.333939,188.188568 162.529938,187.624527 
	C159.419724,187.163391 156.578979,185.075272 153.537537,183.922852 
	C145.606552,180.917801 137.833801,176.203659 128.320084,181.246643 
	C125.492577,184.674149 121.101517,187.728104 120.174232,191.609573 
	C118.428513,198.916916 118.012062,206.727737 118.308334,214.279587 
	C118.556183,220.597351 127.096741,228.160950 133.615036,228.992645 
	C134.056305,229.033096 134.497589,229.073563 134.978134,229.409119 
	C134.978134,229.409119 135.149231,229.652756 135.073639,230.396912 
	C135.982742,230.946640 136.891846,231.496368 137.173920,232.326263 
	C128.443649,236.764465 126.947380,247.038315 133.484970,254.172333 
	C136.503891,257.466644 139.856232,256.945770 143.386612,256.970947 
	C152.362350,257.035004 158.107086,248.131317 153.563385,240.400818 
	C151.635437,237.120697 147.823486,234.947952 145.160019,231.425232 
	C148.432785,230.996384 151.705551,230.567535 155.910110,230.011063 
z"/>
<path fill="#EC327E" opacity="1.000000" stroke="none" 
	d="
M188.970932,226.842316 
	C188.506989,227.178619 188.043060,227.514938 187.245117,227.509155 
	C186.076263,226.562790 185.191650,225.375839 184.414078,225.442230 
	C173.871323,226.342590 163.343430,227.416885 152.811859,228.448196 
	C152.656250,227.866882 152.500641,227.285553 152.345032,226.704239 
	C154.893875,223.104095 159.665115,226.198914 162.986115,224.560181 
	C161.607376,224.074738 160.299240,223.614151 159.432693,223.078644 
	C169.452179,222.003586 179.140549,221.598831 188.578979,219.847214 
	C199.490540,217.822174 210.181976,214.611038 221.337555,211.976990 
	C222.302765,211.783920 223.107178,211.692062 223.458923,211.244461 
	C224.767395,209.579483 225.927032,207.797546 227.142548,206.059540 
	C225.385117,204.986084 223.737762,203.602097 221.838455,202.928833 
	C220.035339,202.289673 217.956497,202.138382 216.020386,202.229416 
	C212.768906,202.382294 208.939529,200.818863 206.562836,204.871582 
	C206.384338,204.916107 206.027710,204.825638 205.992188,204.421844 
	C205.376236,200.699387 204.795776,197.380753 204.215317,194.062103 
	C211.681305,195.042114 219.186172,195.797592 226.599579,197.081223 
	C231.526550,197.934341 236.220337,202.411011 235.772354,205.945923 
	C235.164169,210.744919 233.973663,215.763153 228.593048,217.698273 
	C223.138184,219.660126 217.545776,221.238892 212.017578,222.997910 
	C210.785950,223.389816 209.570892,223.833755 207.940125,224.882050 
	C203.861954,224.904190 200.741531,228.511353 196.939285,226.892349 
	C195.844604,226.850739 194.749924,226.809128 193.259460,226.470779 
	C191.433380,225.584320 190.003052,224.994598 187.763275,224.071121 
	C188.475449,225.705353 188.723190,226.273834 188.970932,226.842316 
z"/>
<path fill="#EF307C" opacity="1.000000" stroke="none" 
	d="
M144.867783,232.271912 
	C147.823486,234.947952 151.635437,237.120697 153.563385,240.400818 
	C158.107086,248.131317 152.362350,257.035004 143.386612,256.970947 
	C139.856232,256.945770 136.503891,257.466644 133.484970,254.172333 
	C126.947380,247.038315 128.443649,236.764465 137.931839,232.236481 
	C140.749100,232.188431 142.808441,232.230164 144.867783,232.271912 
M145.483368,243.016907 
	C143.984589,242.541382 142.485794,242.065857 140.987015,241.590332 
	C140.856049,243.726242 140.511917,245.889633 140.780518,247.974060 
	C140.832001,248.373444 143.616791,249.070572 144.575760,248.563080 
	C146.380569,247.607941 148.330566,246.024582 145.483368,243.016907 
z"/>
<path fill="#EC327E" opacity="1.000000" stroke="none" 
	d="
M128.998413,181.173431 
	C137.833801,176.203659 145.606552,180.917801 153.537537,183.922852 
	C156.578979,185.075272 159.419724,187.163391 162.529938,187.624527 
	C166.333939,188.188568 170.394653,187.889877 174.214508,187.221756 
	C177.684631,186.614822 181.068008,185.212769 184.327454,183.789764 
	C187.243149,182.516830 187.853455,183.865982 187.724762,186.713730 
	C185.931564,189.785568 184.415176,192.422958 182.544312,195.028259 
	C181.478455,195.032928 180.767059,195.069672 179.653748,195.031738 
	C173.175308,197.301407 167.076706,196.788605 160.593811,195.043274 
	C154.487366,192.600723 148.756119,190.213440 142.859497,187.483963 
	C137.339859,184.267807 133.078461,186.695053 128.892792,189.692703 
	C130.417526,186.708740 131.151840,183.976807 128.998413,181.173431 
z"/>
<path fill="#EF307C" opacity="1.000000" stroke="none" 
	d="
M196.619568,227.039810 
	C200.741531,228.511353 203.861954,224.904190 207.787979,225.217789 
	C217.157822,230.083755 217.275970,234.423401 214.937851,242.382187 
	C213.500198,247.275955 206.493256,250.898743 201.400223,249.947220 
	C195.677383,248.878021 192.249023,244.467377 191.939651,238.551727 
	C191.701309,233.994339 192.421799,230.049377 196.619568,227.039810 
M201.158585,236.456787 
	C201.853592,238.005417 202.548615,239.554031 203.243637,241.102661 
	C203.765350,241.172699 204.287048,241.242737 204.808762,241.312790 
	C205.709610,239.132584 206.610474,236.952393 207.511322,234.772202 
	C207.032104,234.339462 206.552887,233.906708 206.073669,233.473969 
	C204.599075,234.260834 203.124466,235.047684 201.158585,236.456787 
z"/>
<path fill="#EF307C" opacity="1.000000" stroke="none" 
	d="
M128.659241,181.210037 
	C131.151840,183.976807 130.417526,186.708740 128.723923,190.002197 
	C124.930374,195.201004 123.214325,200.407669 124.021225,206.352127 
	C124.322235,208.569733 124.643463,210.784607 124.664795,212.853058 
	C123.110481,211.946533 121.846855,211.187653 120.583221,210.428772 
	C120.106186,210.910812 119.629150,211.392838 119.152107,211.874878 
	C122.303986,216.229721 125.372421,220.648865 128.652252,224.905106 
	C129.825623,226.427795 131.509949,227.556732 132.961060,228.865387 
	C127.096741,228.160950 118.556183,220.597351 118.308334,214.279587 
	C118.012062,206.727737 118.428513,198.916916 120.174232,191.609573 
	C121.101517,187.728104 125.492577,184.674149 128.659241,181.210037 
z"/>
<path fill="#F0CE3F" opacity="1.000000" stroke="none" 
	d="
M182.898773,195.060333 
	C184.415176,192.422958 185.931564,189.785568 187.802734,187.093750 
	C188.867966,188.104324 189.578445,189.169357 190.547623,190.622162 
	C192.005524,189.820633 193.603897,188.941879 195.594254,187.847626 
	C196.261765,190.578110 196.862198,193.034256 197.497192,195.631714 
	C200.241211,197.217789 200.515701,190.286606 204.067078,193.766846 
	C204.795776,197.380753 205.376236,200.699387 205.680573,204.591522 
	C204.525253,205.796768 203.646042,206.428513 202.931641,206.941849 
	C201.516144,204.665115 200.283737,202.682861 198.857681,200.389145 
	C197.056259,201.744308 195.772903,202.709747 194.188705,203.901489 
	C192.824173,201.934937 191.469193,199.982162 190.145706,198.074768 
	C188.092529,198.981430 186.235245,199.801575 184.425644,200.600662 
	C183.851669,198.517975 183.375229,196.789154 182.898773,195.060333 
z"/>
<path fill="#EF307C" opacity="1.000000" stroke="none" 
	d="
M158.991104,223.153564 
	C160.299240,223.614151 161.607376,224.074738 162.986115,224.560181 
	C159.665115,226.198914 154.893875,223.104095 152.345032,226.704239 
	C152.500641,227.285553 152.656250,227.866882 152.811859,228.448196 
	C163.343430,227.416885 173.871323,226.342590 184.414078,225.442230 
	C185.191650,225.375839 186.076263,226.562790 186.956223,227.502045 
	C176.637604,228.561722 166.273849,229.286392 154.979584,230.021545 
	C147.749115,229.905594 141.449173,229.779175 135.149231,229.652756 
	C135.149231,229.652756 134.978134,229.409119 135.020050,228.921387 
	C136.458099,228.351837 137.854218,228.201508 139.250351,228.201660 
	C142.784149,228.202026 146.567505,229.145737 149.195740,225.523514 
	C147.336563,225.030106 145.668884,224.587524 144.340271,224.087708 
	C145.729538,223.690475 146.779770,223.350479 148.066010,223.355225 
	C151.865036,223.517838 155.428070,223.335693 158.991104,223.153564 
z"/>
<path fill="#EC327E" opacity="1.000000" stroke="none" 
	d="
M144.001205,224.144943 
	C145.668884,224.587524 147.336563,225.030106 149.195740,225.523514 
	C146.567505,229.145737 142.784149,228.202026 139.250351,228.201660 
	C137.854218,228.201508 136.458099,228.351837 135.000412,228.773834 
	C134.497589,229.073563 134.056305,229.033096 133.288055,228.929016 
	C131.509949,227.556732 129.825623,226.427795 128.652252,224.905106 
	C125.372421,220.648865 122.303986,216.229721 119.152107,211.874878 
	C119.629150,211.392838 120.106186,210.910812 120.583221,210.428772 
	C121.846855,211.187653 123.110481,211.946533 124.750473,213.111755 
	C125.440331,213.953522 125.753822,214.388916 126.041641,215.186539 
	C126.009834,216.031876 126.003700,216.514984 125.859467,217.052979 
	C125.814873,217.072708 125.908379,217.037567 126.292450,216.994095 
	C126.776169,216.969986 126.969315,216.954208 127.515800,217.071014 
	C128.262054,217.120728 128.654968,217.037857 129.023193,216.976440 
	C128.998520,216.997910 129.039978,216.946503 128.766113,217.226562 
	C129.014908,218.013123 129.537552,218.519623 130.019394,219.023148 
	C129.978607,219.020157 129.975342,218.938431 130.076096,219.286469 
	C133.438599,220.832047 136.700348,222.029572 139.859314,223.469635 
	C140.013138,224.117340 140.269730,224.522537 140.526321,224.927719 
	C141.015137,224.405792 141.503967,223.883881 142.269653,223.359222 
	C143.031433,223.619308 143.516327,223.882126 144.001205,224.144943 
z"/>
<path fill="#123669" opacity="1.000000" stroke="none" 
	d="
M135.111435,230.024841 
	C141.449173,229.779175 147.749115,229.905594 154.513687,230.085342 
	C151.705551,230.567535 148.432785,230.996384 145.013901,231.848572 
	C142.808441,232.230164 140.749100,232.188431 138.245361,232.096405 
	C136.891846,231.496368 135.982742,230.946640 135.111435,230.024841 
z"/>
<path fill="#EF307C" opacity="1.000000" stroke="none" 
	d="
M189.370789,226.906647 
	C188.723190,226.273834 188.475449,225.705353 187.763275,224.071121 
	C190.003052,224.994598 191.433380,225.584320 192.930725,226.492569 
	C191.922043,226.864395 190.846329,226.917694 189.370789,226.906647 
z"/>
<path fill="#FFFFFF" opacity="1.000000" stroke="none" 
	d="
M159.432693,223.078644 
	C155.428070,223.335693 151.865036,223.517838 147.968735,222.946579 
	C141.748764,221.108261 135.862045,220.023346 129.975342,218.938431 
	C129.975342,218.938431 129.978607,219.020157 129.995422,218.696198 
	C129.688156,217.897003 129.364059,217.421753 129.039978,216.946503 
	C129.039978,216.946503 128.998520,216.997910 129.001770,216.577911 
	C128.317596,213.012741 127.649727,209.863129 126.939163,206.723190 
	C124.438675,195.673706 130.098251,188.164734 141.045288,188.012054 
	C141.705887,188.002838 142.365036,187.890488 143.024857,187.826141 
	C148.756119,190.213440 154.487366,192.600723 160.715149,195.369202 
	C162.349030,198.606918 164.946014,198.902557 167.337128,198.664856 
	C171.744690,198.226685 176.653946,199.238159 180.055664,195.106430 
	C180.767059,195.069672 181.478455,195.032928 182.544312,195.028259 
	C183.375229,196.789154 183.851669,198.517975 184.425644,200.600662 
	C186.235245,199.801575 188.092529,198.981430 190.145706,198.074768 
	C191.469193,199.982162 192.824173,201.934937 194.188705,203.901489 
	C195.772903,202.709747 197.056259,201.744308 198.857681,200.389145 
	C200.283737,202.682861 201.516144,204.665115 202.931641,206.941849 
	C203.646042,206.428513 204.525253,205.796768 205.716080,204.995331 
	C206.027710,204.825638 206.384338,204.916107 207.013428,204.944870 
	C213.546432,204.398026 219.682037,201.823654 225.407990,206.692627 
	C223.699631,208.702438 222.334305,210.308670 220.968994,211.914902 
	C210.181976,214.611038 199.490540,217.822174 188.578979,219.847214 
	C179.140549,221.598831 169.452179,222.003586 159.432693,223.078644 
z"/>
<path fill="#123669" opacity="1.000000" stroke="none" 
	d="
M221.337555,211.976990 
	C222.334305,210.308670 223.699631,208.702438 225.407990,206.692627 
	C219.682037,201.823654 213.546432,204.398026 207.191925,204.900330 
	C208.939529,200.818863 212.768906,202.382294 216.020386,202.229416 
	C217.956497,202.138382 220.035339,202.289673 221.838455,202.928833 
	C223.737762,203.602097 225.385117,204.986084 227.142548,206.059540 
	C225.927032,207.797546 224.767395,209.579483 223.458923,211.244461 
	C223.107178,211.692062 222.302765,211.783920 221.337555,211.976990 
z"/>
<path fill="#FFFFFF" opacity="1.000000" stroke="none" 
	d="
M145.751312,243.295837 
	C148.330566,246.024582 146.380569,247.607941 144.575760,248.563080 
	C143.616791,249.070572 140.832001,248.373444 140.780518,247.974060 
	C140.511917,245.889633 140.856049,243.726242 140.987015,241.590332 
	C142.485794,242.065857 143.984589,242.541382 145.751312,243.295837 
z"/>
<path fill="#123669" opacity="1.000000" stroke="none" 
	d="
M142.859497,187.483948 
	C142.365036,187.890488 141.705887,188.002838 141.045288,188.012054 
	C130.098251,188.164734 124.438675,195.673706 126.939163,206.723190 
	C127.649727,209.863129 128.317596,213.012741 129.026459,216.556458 
	C128.654968,217.037857 128.262054,217.120728 127.452377,216.758057 
	C126.712852,215.816452 126.390083,215.320389 126.067307,214.824326 
	C125.753822,214.388916 125.440331,213.953522 125.041153,213.259415 
	C124.643463,210.784607 124.322235,208.569733 124.021225,206.352127 
	C123.214325,200.407669 124.930374,195.201004 128.822266,190.276184 
	C133.078461,186.695053 137.339859,184.267807 142.859497,187.483948 
z"/>
<path fill="#123669" opacity="1.000000" stroke="none" 
	d="
M179.653748,195.031738 
	C176.653946,199.238159 171.744690,198.226685 167.337128,198.664856 
	C164.946014,198.902557 162.349030,198.606918 161.090332,195.424438 
	C167.076706,196.788605 173.175308,197.301407 179.653748,195.031738 
z"/>
<path fill="#FFFFFF" opacity="1.000000" stroke="none" 
	d="
M201.404236,236.145660 
	C203.124466,235.047684 204.599075,234.260834 206.073669,233.473969 
	C206.552887,233.906708 207.032104,234.339462 207.511322,234.772202 
	C206.610474,236.952393 205.709610,239.132584 204.808762,241.312790 
	C204.287048,241.242737 203.765350,241.172699 203.243637,241.102661 
	C202.548615,239.554031 201.853592,238.005417 201.404236,236.145660 
z"/>
<path fill="#123669" opacity="1.000000" stroke="none" 
	d="
M130.076096,219.286469 
	C135.862045,220.023346 141.748764,221.108261 147.732727,222.601837 
	C146.779770,223.350479 145.729538,223.690475 144.340271,224.087708 
	C143.516327,223.882126 143.031433,223.619308 141.938477,223.265915 
	C140.874313,223.192581 140.418198,223.209824 139.962097,223.227081 
	C136.700348,222.029572 133.438599,220.832047 130.076096,219.286469 
z"/>
<path fill="#EF307C" opacity="1.000000" stroke="none" 
	d="
M139.859314,223.469620 
	C140.418198,223.209824 140.874313,223.192581 141.661591,223.268646 
	C141.503967,223.883881 141.015137,224.405792 140.526321,224.927719 
	C140.269730,224.522537 140.013138,224.117340 139.859314,223.469620 
z"/>
<path fill="#123669" opacity="1.000000" stroke="none" 
	d="
M128.766113,217.226562 
	C129.364059,217.421753 129.688156,217.897003 130.036209,218.699188 
	C129.537552,218.519623 129.014908,218.013123 128.766113,217.226562 
z"/>
<path fill="#EF307C" opacity="1.000000" stroke="none" 
	d="
M126.041641,215.186539 
	C126.390083,215.320389 126.712852,215.816452 127.099045,216.625488 
	C126.969315,216.954208 126.776169,216.969986 126.291504,216.992874 
	C126.000000,217.000000 125.997559,216.998108 125.997559,216.998108 
	C126.003700,216.514984 126.009834,216.031876 126.041641,215.186539 
z"/>
<path fill="#EF307C" opacity="1.000000" stroke="none" 
	d="
M126.000938,217.001221 
	C125.908379,217.037567 125.814873,217.072708 125.859467,217.052979 
	C125.997559,216.998108 126.000000,217.000000 126.000938,217.001221 
z"/>
</svg>