<?xml version="1.0" standalone="no"?>
<!DOCTYPE svg PUBLIC "-//W3C//DTD SVG 20010904//EN"
 "http://www.w3.org/TR/2001/REC-SVG-20010904/DTD/svg10.dtd">
<svg version="1.0" xmlns="http://www.w3.org/2000/svg"
 width="329.000000pt" height="297.000000pt" viewBox="0 0 329.000000 297.000000"
 preserveAspectRatio="xMidYMid meet">

<g transform="translate(0.000000,297.000000) scale(0.100000,-0.100000)"
fill="#000000" stroke="none">
<path d="M1279 1165 c-73 -48 -109 -129 -109 -244 1 -95 27 -148 105 -206 40
-30 40 -30 200 -34 168 -3 332 13 490 49 44 10 107 23 140 29 32 6 90 22 127
37 99 38 130 92 93 163 -17 35 -49 48 -145 62 -128 18 -159 14 -139 -22 6 -12
9 -32 6 -45 -4 -22 -3 -22 23 -9 15 8 54 13 94 13 60 -1 70 -4 83 -25 24 -36
7 -62 -57 -83 -142 -48 -310 -84 -440 -95 -30 -2 -104 -8 -165 -14 -60 -5
-113 -7 -117 -5 -4 2 -39 8 -78 13 -39 5 -82 17 -96 26 -39 25 -56 79 -56 168
0 69 4 83 28 118 15 22 35 44 45 50 27 14 113 11 135 -6 10 -8 27 -15 37 -15
9 0 34 -9 54 -20 21 -11 44 -20 52 -20 8 0 22 -7 31 -15 26 -24 109 -30 145
-11 17 9 36 16 43 16 6 0 12 6 12 13 0 6 9 23 20 37 31 40 26 53 -17 45 -20
-4 -54 -15 -75 -26 -57 -29 -98 -24 -231 31 -139 57 -182 62 -238 25z"/>
<path d="M1984 716 c-46 -20 -74 -66 -74 -119 0 -40 4 -49 37 -76 29 -24 47
-31 81 -31 38 0 50 6 83 39 46 46 52 93 18 147 -34 55 -80 68 -145 40z m81
-100 c0 -36 -26 -56 -49 -37 -16 14 -22 52 -9 65 4 4 19 6 33 4 20 -2 25 -8
25 -32z"/>
<path d="M1348 644 c-36 -19 -58 -63 -58 -113 0 -33 7 -49 36 -81 38 -42 62
-48 133 -34 61 13 91 117 51 181 -35 58 -105 78 -162 47z m114 -109 c6 -28 -8
-45 -37 -45 -39 0 -61 50 -34 77 18 18 66 -4 71 -32z"/>
</g>
</svg>
