<?xml version="1.0" encoding="UTF-8"?>
<svg version="1.1" xmlns="http://www.w3.org/2000/svg" width="329" height="297">
<path d="M0 0 C11.61659842 -1.52626841 20.40601036 2.44668572 30.80273438 7.15209961 C34.14495153 8.44182408 36.85415555 9.36589991 40.32421875 8.2578125 C41.10410156 7.88398438 41.88398438 7.51015625 42.6875 7.125 C47.71577163 4.94306231 52.50512589 3.94449622 58 4 C59 5 59 5 59.0625 8.0625 C59.041875 9.031875 59.02125 10.00125 59 11 C59.99 10.01 60.98 9.02 62 8 C65 9 65 9 66 11 C66.039992 12.99960012 66.04346799 15.00047242 66 17 C66.66 17 67.32 17 68 17 C68.66 15.68 69.32 14.36 70 13 C70.99 13 71.98 13 73 13 C73 13.66 73 14.32 73 15 C74.134375 14.938125 75.26875 14.87625 76.4375 14.8125 C81.28241393 14.82795427 85.97386953 15.43654895 90.75 16.1875 C91.48275146 16.28844971 92.21550293 16.38939941 92.97045898 16.4934082 C98.06361034 17.35554077 100.67059933 18.82554152 104 23 C105.33674137 26.84313143 105.0871167 28.7027783 103.9375 32.625 C100.59372296 38.44964388 95.62686606 40.3659158 89.4296875 42.12890625 C88.66914063 42.33386719 87.90859375 42.53882813 87.125 42.75 C86.34125 42.97042969 85.5575 43.19085938 84.75 43.41796875 C82.83597707 43.95482884 80.91833548 44.47875962 79 45 C79.46092041 45.43473633 79.92184082 45.86947266 80.39672852 46.31738281 C83.88024654 49.70170518 85.45191474 52.20026964 85.5625 57.125 C85.28749239 61.15844492 84.7408003 63.89375966 82 67 C78.79129008 69.69823335 76.72564523 70.8944516 72.5625 71.5 C68.08116355 70.8710405 65.73073928 69.53690271 62 67 C60.66451653 64.32903306 60.75736438 62.16960576 60.6875 59.1875 C60.63142578 57.63095703 60.63142578 57.63095703 60.57421875 56.04296875 C61.09418129 52.32690619 62.46908947 50.70063629 65 48 C64.4330542 48.08564209 63.8661084 48.17128418 63.28198242 48.25952148 C52.31217661 49.89412078 41.43528845 51.30148764 30.34448242 51.70874023 C25.50804942 51.88690466 20.79619669 52.33957562 16 53 C16.94875 53.7425 17.8975 54.485 18.875 55.25 C22.8357686 58.6035753 23.85534857 60.5293771 24.375 65.8125 C24.27075241 70.4515176 22.61979028 73.22441989 20 77 C15.51682669 79.24158665 9.85526735 78.57674691 5 78 C2.59316115 77.03040004 1.49760659 76.20530168 -0.1015625 74.1796875 C-2.11891839 69.2854067 -1.92958775 64.13613951 -1 59 C1.5 55.9375 1.5 55.9375 4 54 C4 52.68 4 51.36 4 50 C2.948125 49.9175 1.89625 49.835 0.8125 49.75 C-4.7225309 48.66114146 -6.96058503 46.41475927 -10.25 41.9375 C-13.36564333 36.70767013 -13.24812596 32.28882856 -13.3125 26.375 C-13.34150391 25.51003906 -13.37050781 24.64507812 -13.40039062 23.75390625 C-13.47674065 15.91921955 -11.46672245 10.021735 -6.5 3.9375 C-4 2 -4 2 0 2 C0 1.34 0 0.68 0 0 Z M0.0625 11.0625 C-4.45103834 17.49087279 -5.54614113 21.50901917 -4.48828125 29.27734375 C-4.24658203 30.62505859 -4.24658203 30.62505859 -4 32 C-3.86980469 32.78503906 -3.73960938 33.57007813 -3.60546875 34.37890625 C-3.02227528 36.65713684 -2.44650745 38.1428122 -1 40 C11.22225373 47.23255014 30.70830206 44.23615376 44 42 C45.62322568 41.83558968 47.24844461 41.68981823 48.875 41.5625 C50.91690601 41.37762473 52.95855005 41.18984498 55 41 C56.81757813 40.83564453 56.81757813 40.83564453 58.671875 40.66796875 C66.00794485 39.8923171 73.0176282 38.688921 80.125 36.6875 C80.82318848 36.49897461 81.52137695 36.31044922 82.24072266 36.11621094 C87.15858344 34.64240032 90.24150739 32.49504687 94 29 C93.01 27.02 93.01 27.02 92 25 C89.91695462 24.94581674 87.83350232 24.90712449 85.75 24.875 C84.58984375 24.85179687 83.4296875 24.82859375 82.234375 24.8046875 C79.17213954 24.9896051 77.55797249 25.39176977 75 27 C75 27.66 75 28.32 75 29 C71.00003714 27.66667905 70.16217663 25.5042173 68 22 C67.21625 22.33 66.4325 22.66 65.625 23 C63 24 63 24 61 24 C60.505 22.02 60.505 22.02 60 20 C58.02 20.66 56.04 21.32 54 22 C53.01 20.02 52.02 18.04 51 16 C50.30261719 16.31839844 49.60523438 16.63679688 48.88671875 16.96484375 C45.76028018 18.08596178 43.12060314 18.36935609 39.8125 18.5625 C35.75445989 18.71132942 35.75445989 18.71132942 32 20 C31.81308594 19.39414063 31.62617188 18.78828125 31.43359375 18.1640625 C29.28866947 14.92622039 26.70415139 14.54002779 23.0625 13.375 C16.23891129 11.15927419 16.23891129 11.15927419 13 9 C8.06063017 8.20467774 4.21283867 8.14843243 0.0625 11.0625 Z M71 55 C70.67 55.99 70.34 56.98 70 58 C70.99 59.485 70.99 59.485 72 61 C73.32 60.67 74.64 60.34 76 60 C76 58.35 76 56.7 76 55 C74.35 55 72.7 55 71 55 Z M10 62 C8.70366379 63.06645115 8.70366379 63.06645115 8.9375 65.5625 C8.958125 66.366875 8.97875 67.17125 9 68 C11.475 68.99 11.475 68.99 14 70 C14.66 69.34 15.32 68.68 16 68 C15.63318342 65.06546739 15.13562754 64.13562754 13 62 C12.01 62 11.02 62 10 62 Z " fill="#D83078" transform="translate(130,178)"/>
<path d="M0 0 C0.99 0.33 1.98 0.66 3 1 C3 2.98 3 4.96 3 7 C3.99 6.01 4.98 5.02 6 4 C9 5 9 5 10 7 C10.039992 8.99960012 10.04346799 11.00047242 10 13 C10.66 13 11.32 13 12 13 C12.66 11.68 13.32 10.36 14 9 C14.99 9 15.98 9 17 9 C17 9.66 17 10.32 17 11 C18.134375 10.938125 19.26875 10.87625 20.4375 10.8125 C25.28241393 10.82795427 29.97386953 11.43654895 34.75 12.1875 C35.8491272 12.33892456 35.8491272 12.33892456 36.97045898 12.4934082 C42.06361034 13.35554077 44.67059933 14.82554152 48 19 C49.33674137 22.84313143 49.0871167 24.7027783 47.9375 28.625 C44.59372296 34.44964388 39.62686606 36.3659158 33.4296875 38.12890625 C32.66914063 38.33386719 31.90859375 38.53882813 31.125 38.75 C30.34125 38.97042969 29.5575 39.19085938 28.75 39.41796875 C26.83597707 39.95482884 24.91833548 40.47875962 23 41 C23.46092041 41.43473633 23.92184082 41.86947266 24.39672852 42.31738281 C27.88024654 45.70170518 29.45191474 48.20026964 29.5625 53.125 C29.28749239 57.15844492 28.7408003 59.89375966 26 63 C22.79129008 65.69823335 20.72564523 66.8944516 16.5625 67.5 C12.08116355 66.8710405 9.73073928 65.53690271 6 63 C4.66451653 60.32903306 4.75736438 58.16960576 4.6875 55.1875 C4.63142578 53.63095703 4.63142578 53.63095703 4.57421875 52.04296875 C5.09418129 48.32690619 6.46908947 46.70063629 9 44 C8.35973877 44.09087891 7.71947754 44.18175781 7.05981445 44.27539062 C4.14453199 44.68714623 1.22853673 45.093622 -1.6875 45.5 C-2.69490234 45.64308594 -3.70230469 45.78617188 -4.74023438 45.93359375 C-6.20493164 46.13662109 -6.20493164 46.13662109 -7.69921875 46.34375 C-8.59471436 46.46943359 -9.49020996 46.59511719 -10.4128418 46.72460938 C-12.96397361 46.99616516 -15.4366743 47.04847897 -18 47 C-17.01 46.34 -16.02 45.68 -15 45 C-14.27617533 42.94074861 -14.27617533 42.94074861 -14 41 C-14.84594727 41.01571045 -15.69189453 41.0314209 -16.56347656 41.04760742 C-19.76169484 41.09933945 -22.95969691 41.13663906 -26.15820312 41.16479492 C-27.53132226 41.17969923 -28.90439539 41.20002997 -30.27734375 41.22631836 C-39.09885126 41.39075435 -47.67032791 41.24504672 -56 38 C-56.33 37.34 -56.66 36.68 -57 36 C-55.86304688 36.2165625 -54.72609375 36.433125 -53.5546875 36.65625 C-41.68898056 38.83113482 -30.09008199 40.67660569 -18.2175293 37.4675293 C-15.97208702 36.99411501 -14.0431432 36.92115059 -11.75390625 36.9765625 C-0.09113082 37.09582598 11.0955189 35.26473747 22.3125 32.125 C23.20163086 31.88056152 24.09076172 31.63612305 25.00683594 31.38427734 C29.79702783 29.96928592 33.30282935 28.52184091 37 25 C36.505 23.515 36.505 23.515 36 22 C33.89590361 21.97298592 31.79170822 21.95359777 29.6875 21.9375 C28.51574219 21.92589844 27.34398437 21.91429687 26.13671875 21.90234375 C22.96940805 21.85100102 22.96940805 21.85100102 20 23 C19.67 23.66 19.34 24.32 19 25 C18.34 25 17.68 25 17 25 C16.67 25.66 16.34 26.32 16 27 C14.68 24.36 13.36 21.72 12 19 C10.35 19.66 8.7 20.32 7 21 C5.5 19.625 5.5 19.625 4 18 C4 17.34 4 16.68 4 16 C2.02 16.99 0.04 17.98 -2 19 C-4.09678815 15.59271925 -4.4133256 12.96792579 -4 9 C-3.04701223 7.63266972 -2.04625409 6.29735507 -1 5 C-0.28566879 2.35065178 -0.28566879 2.35065178 0 0 Z M15 51 C14.67 51.99 14.34 52.98 14 54 C14.99 55.485 14.99 55.485 16 57 C17.32 56.67 18.64 56.34 20 56 C20 54.35 20 52.7 20 51 C18.35 51 16.7 51 15 51 Z " fill="#E93079" transform="translate(186,182)"/>
<path d="M0 0 C0.99 0.33 1.98 0.66 3 1 C3 2.98 3 4.96 3 7 C3.99 6.01 4.98 5.02 6 4 C9 5 9 5 10 7 C10.039992 8.99960012 10.04346799 11.00047242 10 13 C10.66 13 11.32 13 12 13 C12.66 11.68 13.32 10.36 14 9 C14.99 9 15.98 9 17 9 C17 9.66 17 10.32 17 11 C18.134375 10.938125 19.26875 10.87625 20.4375 10.8125 C25.28241393 10.82795427 29.97386953 11.43654895 34.75 12.1875 C35.48275146 12.28844971 36.21550293 12.38939941 36.97045898 12.4934082 C42.06361034 13.35554077 44.67059933 14.82554152 48 19 C49.33674137 22.84313143 49.0871167 24.7027783 47.9375 28.625 C45.23616156 33.33055728 42.08457789 35.3051407 37 37 C35.10529184 37.0685495 33.2083166 37.08480372 31.3125 37.0625 C30.31863281 37.05347656 29.32476562 37.04445312 28.30078125 37.03515625 C27.16189453 37.01775391 27.16189453 37.01775391 26 37 C26 37.66 26 38.32 26 39 C25.01 39 24.02 39 23 39 C23 38.34 23 37.68 23 37 C19.535 36.505 19.535 36.505 16 36 C17.485 35.505 17.485 35.505 19 35 C19 34.34 19 33.68 19 33 C20.04800781 32.67386719 21.09601563 32.34773438 22.17578125 32.01171875 C23.55484175 31.57079465 24.93373962 31.12936168 26.3125 30.6875 C27.34793945 30.36749023 27.34793945 30.36749023 28.40429688 30.04101562 C33.31492446 28.45283616 33.31492446 28.45283616 37 25 C36.505 23.515 36.505 23.515 36 22 C33.89590361 21.97298592 31.79170822 21.95359777 29.6875 21.9375 C28.51574219 21.92589844 27.34398437 21.91429687 26.13671875 21.90234375 C22.96940805 21.85100102 22.96940805 21.85100102 20 23 C19.67 23.66 19.34 24.32 19 25 C18.34 25 17.68 25 17 25 C16.67 25.66 16.34 26.32 16 27 C14.68 24.36 13.36 21.72 12 19 C10.35 19.66 8.7 20.32 7 21 C5.5 19.625 5.5 19.625 4 18 C4 17.34 4 16.68 4 16 C2.02 16.99 0.04 17.98 -2 19 C-4.09678815 15.59271925 -4.4133256 12.96792579 -4 9 C-3.04701223 7.63266972 -2.04625409 6.29735507 -1 5 C-0.28566879 2.35065178 -0.28566879 2.35065178 0 0 Z " fill="#C3337A" transform="translate(186,182)"/>
<path d="M0 0 C0.556875 0.19335938 1.11375 0.38671875 1.6875 0.5859375 C3.28836319 1.13217798 4.89426549 1.66378776 6.50390625 2.18359375 C8.02418522 2.68083679 9.535766 3.20749319 11.02734375 3.78515625 C16.36770586 5.6089609 19.49837908 4.33762603 24.5234375 2.02734375 C28.03207213 0.57186913 31.22904831 0.27932975 35 0 C35.34803805 4.17645661 34.66218062 5.82586157 32 9 C31.566875 10.051875 31.566875 10.051875 31.125 11.125 C29.53089218 13.78184637 27.91908219 14.04451679 25 15 C22.94593369 15.27950068 20.88084681 15.48625375 18.8125 15.625 C17.76707031 15.69976562 16.72164062 15.77453125 15.64453125 15.8515625 C14.09799802 15.93836939 12.54896755 16 11 16 C10.34 15.01 9.68 14.02 9 13 C5.77559246 11.60569769 5.77559246 11.60569769 2.0625 10.4375 C-4.72193615 8.1853759 -4.72193615 8.1853759 -8 6 C-13.00074514 5.19479527 -16.81105017 5.1578272 -21 8.125 C-25.61862635 14.76427538 -25.18765864 20.27477084 -24 28 C-23.43367378 30.71240453 -22.75527773 33.33135202 -22 36 C-25.70893142 32.79683196 -26.86455766 29.50393763 -27.30078125 24.66015625 C-27.30658203 22.87931641 -27.30658203 22.87931641 -27.3125 21.0625 C-27.32925781 19.87785156 -27.34601563 18.69320312 -27.36328125 17.47265625 C-26.80491745 12.13517861 -24.92431459 8.96632889 -21.25 5.125 C-17.24114585 2.50382613 -15.7235947 2.30307619 -11 3 C-7.26579947 4.17576854 -3.6278324 5.53049827 0 7 C-0.33 6.01 -0.66 5.02 -1 4 C-0.5625 1.8125 -0.5625 1.8125 0 0 Z " fill="#D7347C" transform="translate(151,182)"/>
<path d="M0 0 C0 0.66 0 1.32 0 2 C0.99 2 1.98 2 3 2 C3 1.34 3 0.68 3 0 C5.64 0 8.28 0 11 0 C11 0.33 11 0.66 11 1 C7.37 1.99 3.74 2.98 0 4 C0 4.66 0 5.32 0 6 C-1.010625 5.95875 -2.02125 5.9175 -3.0625 5.875 C-7.04394918 6.00139521 -10.20106028 6.88266479 -14 8 C-14.99 7.505 -14.99 7.505 -16 7 C-18.06220835 7.14112405 -18.06220835 7.14112405 -20.39453125 7.55859375 C-21.26787109 7.69716797 -22.14121094 7.83574219 -23.04101562 7.97851562 C-23.95560547 8.12998047 -24.87019531 8.28144531 -25.8125 8.4375 C-27.61011432 8.73132847 -29.40828148 9.02179823 -31.20703125 9.30859375 C-32.0060083 9.44064209 -32.80498535 9.57269043 -33.62817383 9.70874023 C-36.1086115 10.01333747 -38.50346947 10.04902762 -41 10 C-40.01 9.34 -39.02 8.68 -38 8 C-37.27617533 5.94074861 -37.27617533 5.94074861 -37 4 C-38.2689209 4.02356567 -38.2689209 4.02356567 -39.56347656 4.04760742 C-42.76169484 4.09933945 -45.95969691 4.13663906 -49.15820312 4.16479492 C-50.53132226 4.17969923 -51.90439539 4.20002997 -53.27734375 4.22631836 C-62.09885126 4.39075435 -70.67032791 4.24504672 -79 1 C-79.33 0.34 -79.66 -0.32 -80 -1 C-78.86304688 -0.7834375 -77.72609375 -0.566875 -76.5546875 -0.34375 C-64.68717049 1.8314666 -53.08757516 3.67642398 -41.21337891 0.46630859 C-38.98493113 -0.00317467 -37.0912148 -0.0687371 -34.8203125 -0.00390625 C-30.0499599 0.04994073 -25.42019891 -0.37531757 -20.6875 -0.9375 C-19.5109082 -1.06801758 -19.5109082 -1.06801758 -18.31054688 -1.20117188 C-14.0573132 -1.67794597 -14.0573132 -1.67794597 -9.87426758 -2.55297852 C-6.1675636 -3.43704456 -3.22955669 -1.73011966 0 0 Z " fill="#DC337E" transform="translate(209,219)"/>
<path d="M0 0 C0.99 0.33 1.98 0.66 3 1 C3 2.98 3 4.96 3 7 C3.99 6.01 4.98 5.02 6 4 C9 5 9 5 10 7 C10.039992 8.99960012 10.04346799 11.00047242 10 13 C10.66 13 11.32 13 12 13 C12.33 12.01 12.66 11.02 13 10 C13.99 10 14.98 10 16 10 C19.05065234 16.22333078 19.05065234 16.22333078 18.8125 19.875 C18 22 18 22 16 23 C14.68 21.68 13.36 20.36 12 19 C10.35 19.66 8.7 20.32 7 21 C5.5 19.625 5.5 19.625 4 18 C4 17.34 4 16.68 4 16 C2.02 16.99 0.04 17.98 -2 19 C-4.09678815 15.59271925 -4.4133256 12.96792579 -4 9 C-3.04701223 7.63266972 -2.04625409 6.29735507 -1 5 C-0.28566879 2.35065178 -0.28566879 2.35065178 0 0 Z " fill="#DABC43" transform="translate(186,182)"/>
<path d="M0 0 C1.32 0.66 2.64 1.32 4 2 C4 2.66 4 3.32 4 4 C4.66 4 5.32 4 6 4 C6.30557956 7.89613934 6.39288926 10.3085149 4.4375 13.75 C-1.28081124 19.02844114 -6.33974355 19.31745005 -13.83984375 19.10546875 C-14.90912109 19.05326172 -14.90912109 19.05326172 -16 19 C-16 19.66 -16 20.32 -16 21 C-16.99 21 -17.98 21 -19 21 C-19 20.34 -19 19.68 -19 19 C-21.31 18.67 -23.62 18.34 -26 18 C-25.01 17.67 -24.02 17.34 -23 17 C-23 16.34 -23 15.68 -23 15 C-22.44538086 14.84442627 -21.89076172 14.68885254 -21.31933594 14.52856445 C-18.7906261 13.80807781 -16.2706575 13.06064871 -13.75 12.3125 C-12.44095703 11.94608398 -12.44095703 11.94608398 -11.10546875 11.57226562 C-6.00710201 10.03497184 -2.78851058 8.84856194 0 4 C0 3.34 0 2.68 0 2 C0 1.34 0 0.68 0 0 Z " fill="#EF347D" transform="translate(228,200)"/>
<path d="M0 0 C0 2 0 4 0 6 C-3.88959827 7.27159943 -7.78563579 7.12651187 -11.828125 7.09765625 C-12.57713074 7.0962413 -13.32613647 7.09482635 -14.09783936 7.09336853 C-16.48193412 7.08778659 -18.86593378 7.07523745 -21.25 7.0625 C-22.86979031 7.05748266 -24.48958209 7.05292016 -26.109375 7.04882812 C-30.07295312 7.03782308 -34.03646045 7.02057091 -38 7 C-38 6.01 -38 5.02 -38 4 C-36.68 4.33 -35.36 4.66 -34 5 C-34.33 3.68 -34.66 2.36 -35 1 C-30.85428128 0.83040037 -26.70840984 0.66485617 -22.5625 0.5 C-21.39783203 0.45230469 -20.23316406 0.40460938 -19.03320312 0.35546875 C-12.68259218 0.10502212 -6.35548153 -0.05437845 0 0 Z " fill="#F33180" transform="translate(172,222)"/>
<path d="M0 0 C0.33 0.99 0.66 1.98 1 3 C1.8971875 2.505 1.8971875 2.505 2.8125 2 C5 1 5 1 8 1 C8.20753906 1.54269531 8.41507813 2.08539063 8.62890625 2.64453125 C10.40061811 6.75875752 11.37772322 8.64276703 15.375 10.9375 C18.59793267 11.88215268 21.66877178 12.59375266 25 13 C23.02 13.99 23.02 13.99 21 15 C21 15.99 21 16.98 21 18 C19.68 17.67 18.36 17.34 17 17 C17 17.66 17 18.32 17 19 C11.69844842 18.58419203 8.78575609 17.78575609 5 14 C1.16588594 9.31386059 0.4045892 5.86654335 0 0 Z " fill="#EF2F7C" transform="translate(117,209)"/>
<path d="M0 0 C1.70542969 0.32484375 1.70542969 0.32484375 3.4453125 0.65625 C15.39351495 2.84625556 26.95622069 4.61979171 38.9140625 1.44140625 C41.94507714 0.80001177 44.86892088 0.91632985 47.953125 0.99609375 C50.16031459 1.05819191 50.16031459 1.05819191 52.9375 0.5 C57.2925713 -0.21103205 61.59731809 -0.07830857 66 0 C66 0.33 66 0.66 66 1 C57.585 2.485 57.585 2.485 49 4 C48.67 5.32 48.34 6.64 48 8 C48.99 8.66 49.98 9.32 51 10 C45.06 10.495 45.06 10.495 39 11 C39.99 10.34 40.98 9.68 42 9 C42.72382467 6.94074861 42.72382467 6.94074861 43 5 C41.7310791 5.02356567 41.7310791 5.02356567 40.43652344 5.04760742 C37.23830516 5.09933945 34.04030309 5.13663906 30.84179688 5.16479492 C29.46867774 5.17969923 28.09560461 5.20002997 26.72265625 5.22631836 C17.90114874 5.39075435 9.32967209 5.24504672 1 2 C0.67 1.34 0.34 0.68 0 0 Z " fill="#573470" transform="translate(129,218)"/>
<path d="M0 0 C0 2.25 0 2.25 -1 5 C-4.88187712 7.75722113 -9.2788052 9.40985065 -14 10 C-13.67 10.66 -13.34 11.32 -13 12 C-14.65 12.33 -16.3 12.66 -18 13 C-18.35744681 6.80425532 -18.35744681 6.80425532 -17 3.75 C-11.82579119 -0.77743271 -6.52155878 -1.49452389 0 0 Z " fill="#F2307C" transform="translate(209,225)"/>
<path d="M0 0 C2.06183633 -0.08150744 4.12461349 -0.1394194 6.1875 -0.1875 C7.33605469 -0.22230469 8.48460937 -0.25710937 9.66796875 -0.29296875 C13.32047407 0.02817767 15.13245089 0.75104467 18 3 C19 6 19 6 19 9 C18.67 9.66 18.34 10.32 18 11 C16.93072266 10.566875 16.93072266 10.566875 15.83984375 10.125 C9.02288723 7.48262654 3.22867173 5.68682504 -4 8 C-3.67 7.34 -3.34 6.68 -3 6 C-2.34 6 -1.68 6 -1 6 C-0.67 4.02 -0.34 2.04 0 0 Z " fill="#E4307A" transform="translate(133,179)"/>
<path d="M0 0 C4.29 0 8.58 0 13 0 C13 0.33 13 0.66 13 1 C9.7 1 6.4 1 3 1 C2.87625 1.94875 2.7525 2.8975 2.625 3.875 C1.88252023 7.58739886 0.60914848 8.39085152 -2 11 C-2.99 10.67 -3.98 10.34 -5 10 C-5 10.66 -5 11.32 -5 12 C-6.98 12 -8.96 12 -11 12 C-9.60823388 7.57165324 -7.56278256 4.96898547 -4 2 C-2.68 2 -1.36 2 0 2 C0 1.34 0 0.68 0 0 Z " fill="#CE3379" transform="translate(130,178)"/>
<path d="M0 0 C11.85815603 3.85815603 11.85815603 3.85815603 15 7 C13.5608866 6.71640113 12.12374482 6.42278601 10.6875 6.125 C9.88699219 5.96257812 9.08648437 5.80015625 8.26171875 5.6328125 C6 5 6 5 3 3 C-2.00074514 2.19479527 -5.81105017 2.1578272 -10 5.125 C-14.61862635 11.76427538 -14.18765864 17.27477084 -13 25 C-12.43367378 27.71240453 -11.75527773 30.33135202 -11 33 C-14.70893142 29.79683196 -15.86455766 26.50393763 -16.30078125 21.66015625 C-16.30658203 19.87931641 -16.30658203 19.87931641 -16.3125 18.0625 C-16.32925781 16.87785156 -16.34601563 15.69320312 -16.36328125 14.47265625 C-15.80491745 9.13517861 -13.92431459 5.96632889 -10.25 2.125 C-6.17560008 -0.53903072 -4.8124648 -0.7638833 0 0 Z " fill="#103669" transform="translate(140,185)"/>
<path d="M0 0 C3.16115776 1.36983503 3.9927092 1.9890638 6 5 C6.5840703 9.47534388 6.52465129 13.65922448 4.875 17.875 C1.33248136 21.88985446 -1.45741502 23.90047839 -6.875 24.25 C-7.90625 24.1675 -8.9375 24.085 -10 24 C-10 23.67 -10 23.34 -10 23 C-8.02 23 -6.04 23 -4 23 C-4 22.34 -4 21.68 -4 21 C-2.35 20.67 -0.7 20.34 1 20 C1 19.34 1 18.68 1 18 C1.66 18 2.32 18 3 18 C3 13.38 3 8.76 3 4 C2.67 4.66 2.34 5.32 2 6 C1.01 6 0.02 6 -1 6 C-1.33 8.31 -1.66 10.62 -2 13 C-2.33 13 -2.66 13 -3 13 C-3 11.35 -3 9.7 -3 8 C-4.65 8 -6.3 8 -8 8 C-6 6 -6 6 -4 5.6875 C-3.34 5.460625 -2.68 5.23375 -2 5 C-0.70339566 2.50965614 -0.70339566 2.50965614 0 0 Z " fill="#B73179" transform="translate(209,225)"/>
<path d="M0 0 C0.99 0 1.98 0 3 0 C3.34803805 4.17645661 2.66218062 5.82586157 0 9 C-0.69580267 10.31836295 -1.37224433 11.64791086 -2 13 C-5.5219721 13.08004482 -8.61981469 13.04005702 -12 12 C-11.67 11.01 -11.34 10.02 -11 9 C-9.02 9.495 -9.02 9.495 -7 10 C-6.855625 9.38125 -6.71125 8.7625 -6.5625 8.125 C-5.64059321 4.64224101 -5.15156125 4.10104083 -2 2 C-1.34 1.34 -0.68 0.68 0 0 Z " fill="#DF407E" transform="translate(183,182)"/>
<path d="M0 0 C6.6 0 13.2 0 20 0 C20 0.33 20 0.66 20 1 C17.36 1.33 14.72 1.66 12 2 C12.99 2.66 13.98 3.32 15 4 C15 4.66 15 5.32 15 6 C14.34 6 13.68 6 13 6 C13 6.66 13 7.32 13 8 C13.66 8.33 14.32 8.66 15 9 C11.71023192 10.09658936 10.28696233 9.79953138 7 9 C7.33 7.35 7.66 5.7 8 4 C5.36 4 2.72 4 0 4 C0 2.66666667 0 1.33333333 0 0 Z " fill="#853372" transform="translate(134,229)"/>
<path d="M0 0 C0.66 0 1.32 0 2 0 C2.96070434 2.88211302 3.10581883 4.69850044 3.0625 7.6875 C3.05347656 8.49574219 3.04445312 9.30398437 3.03515625 10.13671875 C3.02355469 10.75160156 3.01195312 11.36648437 3 12 C-1.32734391 14.22923777 -4.28400182 13.92470553 -9 13 C-8.34 12.34 -7.68 11.68 -7 11 C-6.01 11 -5.02 11 -4 11 C-3.87882813 10.37351563 -3.75765625 9.74703125 -3.6328125 9.1015625 C-3.38144531 7.87566406 -3.38144531 7.87566406 -3.125 6.625 C-2.96257812 5.81289062 -2.80015625 5.00078125 -2.6328125 4.1640625 C-2 2 -2 2 0 0 Z " fill="#EF317B" transform="translate(210,229)"/>
<path d="M0 0 C3.265625 -0.36328125 3.265625 -0.36328125 7.25 -0.3125 C9.20679688 -0.30669922 9.20679688 -0.30669922 11.203125 -0.30078125 C14.81306502 -0.01480864 17.64138348 0.690974 21 2 C21.25 4.3125 21.25 4.3125 21 7 C19 8.8125 19 8.8125 17 10 C16.34 9.67 15.68 9.34 15 9 C15.99 8.01 16.98 7.02 18 6 C17.67 5.01 17.34 4.02 17 3 C14.89590361 2.97298592 12.79170822 2.95359777 10.6875 2.9375 C9.51574219 2.92589844 8.34398437 2.91429687 7.13671875 2.90234375 C3.96940805 2.85100102 3.96940805 2.85100102 1 4 C0.67 4.66 0.34 5.32 0 6 C-0.66 6 -1.32 6 -2 6 C-2.33 6.66 -2.66 7.32 -3 8 C-3.66 5.69 -4.32 3.38 -5 1 C-3.515 1.99 -3.515 1.99 -2 3 C-1.34 2.01 -0.68 1.02 0 0 Z " fill="#323C6D" transform="translate(205,201)"/>
<path d="M0 0 C0.33 0.99 0.66 1.98 1 3 C1.8971875 2.505 1.8971875 2.505 2.8125 2 C5 1 5 1 8 1 C8.66 2.98 9.32 4.96 10 7 C9.01 7.99 8.02 8.98 7 10 C7.99 10.99 8.98 11.98 10 13 C9.34 13 8.68 13 8 13 C8 13.66 8 14.32 8 15 C3.86120317 13.62040106 3.06959453 11.79425664 1 8 C0.40819059 5.29805048 0.19126159 2.77329299 0 0 Z " fill="#E52E79" transform="translate(117,209)"/>
<path d="M0 0 C1.20366211 0.00483398 1.20366211 0.00483398 2.43164062 0.00976562 C3.68170898 0.02233398 3.68170898 0.02233398 4.95703125 0.03515625 C5.80201172 0.03966797 6.64699219 0.04417969 7.51757812 0.04882812 C9.6015928 0.06060222 11.68557102 0.07853735 13.76953125 0.09765625 C13.76953125 0.75765625 13.76953125 1.41765625 13.76953125 2.09765625 C12.77953125 2.42765625 11.78953125 2.75765625 10.76953125 3.09765625 C14.06953125 3.42765625 17.36953125 3.75765625 20.76953125 4.09765625 C20.76953125 4.42765625 20.76953125 4.75765625 20.76953125 5.09765625 C16.80953125 5.09765625 12.84953125 5.09765625 8.76953125 5.09765625 C8.76953125 4.43765625 8.76953125 3.77765625 8.76953125 3.09765625 C7.80015625 3.28328125 6.83078125 3.46890625 5.83203125 3.66015625 C1.38539919 4.31621672 -2.81131858 3.74900491 -7.23046875 3.09765625 C-7.23046875 2.43765625 -7.23046875 1.77765625 -7.23046875 1.09765625 C-4.46481493 0.17577164 -2.84763173 -0.02019597 0 0 Z " fill="#E22F7B" transform="translate(147.23046875,223.90234375)"/>
<path d="M0 0 C0.98484375 0.00902344 1.9696875 0.01804688 2.984375 0.02734375 C4.10585937 0.04474609 4.10585937 0.04474609 5.25 0.0625 C4.610625 0.68125 3.97125 1.3 3.3125 1.9375 C1.21116416 3.88847612 1.21116416 3.88847612 0.25 6.0625 C-4.29093172 7.48154116 -9.0443099 7.15476843 -13.75 7.0625 C-12.43 6.4025 -11.11 5.7425 -9.75 5.0625 C-9.75 3.7425 -9.75 2.4225 -9.75 1.0625 C-6.43929162 0.06140485 -3.44915231 -0.04106134 0 0 Z " fill="#EF317E" transform="translate(186.75,219.9375)"/>
<path d="M0 0 C0.33 0 0.66 0 1 0 C1.33 2.31 1.66 4.62 2 7 C2.66 7 3.32 7 4 7 C5 10 5 10 5 14 C5.66 14.33 6.32 14.66 7 15 C4.69 15 2.38 15 0 15 C-1.125 11.25 -1.125 11.25 0 9 C-1.65 8.67 -3.3 8.34 -5 8 C-5 7.01 -5 6.02 -5 5 C-4.34 5 -3.68 5 -3 5 C-3 4.34 -3 3.68 -3 3 C-2.01 3 -1.02 3 0 3 C0 2.01 0 1.02 0 0 Z " fill="#F02E79" transform="translate(137,241)"/>
<path d="M0 0 C2.625 -0.1875 2.625 -0.1875 5 0 C5.33 1.65 5.66 3.3 6 5 C7.32 5 8.64 5 10 5 C10 5.66 10 6.32 10 7 C5.20862412 8.6290678 1.94367454 9.20577428 -3 8 C-2.67 9.32 -2.34 10.64 -2 12 C-2.66 12 -3.32 12 -4 12 C-4.33 9.69 -4.66 7.38 -5 5 C-4.01 4.34 -3.02 3.68 -2 3 C-1.34 2.01 -0.68 1.02 0 0 Z " fill="#C62F77" transform="translate(196,233)"/>
<path d="M0 0 C3.3 0 6.6 0 10 0 C10.33 1.98 10.66 3.96 11 6 C4.07 5.67 -2.86 5.34 -10 5 C-10.33 3.68 -10.66 2.36 -11 1 C-10.1646875 1.19916016 -10.1646875 1.19916016 -9.3125 1.40234375 C-4.2141299 2.58220305 0.79787441 3.43249539 6 4 C4.11683841 2.89163577 4.11683841 2.89163577 2 2 C1.01 2.495 1.01 2.495 0 3 C0 2.01 0 1.02 0 0 Z " fill="#F43280" transform="translate(215,196)"/>
<path d="M0 0 C0.33 0 0.66 0 1 0 C1.33 5.28 1.66 10.56 2 16 C1.01 15.01 0.02 14.02 -1 13 C-1.99 13.33 -2.98 13.66 -4 14 C-5.17353189 10.47940432 -5.20146402 7.693507 -5 4 C-4.34 3.34 -3.68 2.68 -3 2 C-3 2.99 -3 3.98 -3 5 C-2.34 5 -1.68 5 -1 5 C-0.67 3.35 -0.34 1.7 0 0 Z " fill="#ED317B" transform="translate(122,198)"/>
<path d="M0 0 C1.9375 0.3125 1.9375 0.3125 4 1 C4.33 1.99 4.66 2.98 5 4 C5.66 4.33 6.32 4.66 7 5 C7.33 4.34 7.66 3.68 8 3 C9.65 3.33 11.3 3.66 13 4 C12.375 6.4375 12.375 6.4375 11 9 C8.125 10.0625 8.125 10.0625 5 10 C2.5625 8.3125 2.5625 8.3125 1 6 C1.25 3.75 1.25 3.75 2 2 C1.34 2 0.68 2 0 2 C0 1.34 0 0.68 0 0 Z " fill="#C62E74" transform="translate(139,246)"/>
<path d="M0 0 C0.99 0 1.98 0 3 0 C6.05065234 6.22333078 6.05065234 6.22333078 5.8125 9.875 C5 12 5 12 3 13 C0 8.25 0 8.25 0 6 C-0.66 6 -1.32 6 -2 6 C-1.125 1.125 -1.125 1.125 0 0 Z " fill="#EDCF3C" transform="translate(199,192)"/>
<path d="M0 0 C3.63 0 7.26 0 11 0 C11 0.66 11 1.32 11 2 C10.01 2.33 9.02 2.66 8 3 C7.67 3.66 7.34 4.32 7 5 C7.66 5.33 8.32 5.66 9 6 C8.09507812 6.09087891 8.09507812 6.09087891 7.171875 6.18359375 C5.97304687 6.30927734 5.97304687 6.30927734 4.75 6.4375 C3.96109375 6.51871094 3.1721875 6.59992188 2.359375 6.68359375 C0.17635361 6.97634993 -1.8773182 7.42064419 -4 8 C-3.67 7.34 -3.34 6.68 -3 6 C-2.34 6 -1.68 6 -1 6 C-0.67 4.02 -0.34 2.04 0 0 Z " fill="#F1337F" transform="translate(133,179)"/>
<path d="M0 0 C0 0.66 0 1.32 0 2 C0.66 2.33 1.32 2.66 2 3 C-0.64 3 -3.28 3 -6 3 C-6 3.66 -6 4.32 -6 5 C-6.99 5 -7.98 5 -9 5 C-9 4.34 -9 3.68 -9 3 C-11.31 2.67 -13.62 2.34 -16 2 C-13.39395012 0.26263341 -11.92766764 -0.45003827 -9 -1.1875 C-8.319375 -1.36667969 -7.63875 -1.54585937 -6.9375 -1.73046875 C-4.2334353 -2.10663904 -2.39401747 -1.19700874 0 0 Z " fill="#F22F7E" transform="translate(218,216)"/>
<path d="M0 0 C0.33 0.66 0.66 1.32 1 2 C0.34 2 -0.32 2 -1 2 C-1.33 2.66 -1.66 3.32 -2 4 C-1.34 3.67 -0.68 3.34 0 3 C1.99960012 2.960008 4.00047242 2.95653201 6 3 C3.41212273 5.58787727 1.57992139 5.62709152 -2 6 C-2.66 5.67 -3.32 5.34 -4 5 C-4 4.34 -4 3.68 -4 3 C-8.61073111 1.70323188 -12.33840089 2.28890861 -17 3 C-14.25346196 1.16897464 -12.16903404 0.24035371 -9.0625 -0.75 C-8.20785156 -1.03359375 -7.35320312 -1.3171875 -6.47265625 -1.609375 C-3.53883486 -2.07285389 -2.418294 -1.66629654 0 0 Z " fill="#CF317A" transform="translate(222,213)"/>
<path d="M0 0 C2.25 -0.375 2.25 -0.375 5 0 C7.375 2.75 7.375 2.75 9 6 C8.75 8.375 8.75 8.375 8 10 C8 9.01 8 8.02 8 7 C7.34 7 6.68 7 6 7 C4.375 5.5 4.375 5.5 3 4 C4 5 4 5 5 8 C4.01 8 3.02 8 2 8 C1.34 8.66 0.68 9.32 0 10 C0 8.68 0 7.36 0 6 C-0.66 5.67 -1.32 5.34 -2 5 C-1.34 3.35 -0.68 1.7 0 0 Z " fill="#E5307D" transform="translate(226,197)"/>
<path d="M0 0 C1.32 0.66 2.64 1.32 4 2 C4 2.66 4 3.32 4 4 C4.66 4 5.32 4 6 4 C6 5.65 6 7.3 6 9 C3.03 9.66 0.06 10.32 -3 11 C-3 7.44044831 -2.10658705 6.72100827 0 4 C0 3.34 0 2.68 0 2 C0 1.34 0 0.68 0 0 Z " fill="#F02F7C" transform="translate(228,200)"/>
<path d="M0 0 C0.99 0.33 1.98 0.66 3 1 C3 1.99 3 2.98 3 4 C3.66 4 4.32 4 5 4 C5 4.99 5 5.98 5 7 C3.68 7.33 2.36 7.66 1 8 C1.33 8.66 1.66 9.32 2 10 C0.35 10.33 -1.3 10.66 -3 11 C-3.36923077 4.6 -3.36923077 4.6 -1.5 1.5625 C-1.005 1.046875 -0.51 0.53125 0 0 Z " fill="#E33079" transform="translate(194,227)"/>
<path d="M0 0 C2.97 0.33 5.94 0.66 9 1 C7.02 1.99 7.02 1.99 5 3 C5 3.99 5 4.98 5 6 C3.68 5.67 2.36 5.34 1 5 C1 5.66 1 6.32 1 7 C-2.375 6.6875 -2.375 6.6875 -6 6 C-6.66 5.01 -7.32 4.02 -8 3 C-3.25 3.875 -3.25 3.875 -1 5 C-0.67 3.35 -0.34 1.7 0 0 Z " fill="#E22C7A" transform="translate(133,221)"/>
<path d="M0 0 C0.33 0 0.66 0 1 0 C1 3.63 1 7.26 1 11 C3.97 11.33 6.94 11.66 10 12 C9.67 12.99 9.34 13.98 9 15 C8.34 15 7.68 15 7 15 C7.33 16.32 7.66 17.64 8 19 C4.59528305 17.54083559 2.322144 15.90268 0 13 C-0.390625 9.765625 -0.390625 9.765625 -0.25 6.25 C-0.21390625 5.07953125 -0.1778125 3.9090625 -0.140625 2.703125 C-0.09421875 1.81109375 -0.0478125 0.9190625 0 0 Z " fill="#BE2E75" transform="translate(129,237)"/>
<path d="M0 0 C0.99 0.33 1.98 0.66 3 1 C3.73046875 2.7421875 3.73046875 2.7421875 4.1875 4.875 C4.34605469 5.57367188 4.50460938 6.27234375 4.66796875 6.9921875 C5 9 5 9 5 12 C5.66 12 6.32 12 7 12 C7.33 13.32 7.66 14.64 8 16 C7.401875 15.79375 6.80375 15.5875 6.1875 15.375 C3.71549154 14.69328085 3.71549154 14.69328085 1 17 C0.01 16.01 -0.98 15.02 -2 14 C-1.67 13.34 -1.34 12.68 -1 12 C0.98 12.495 0.98 12.495 3 13 C2.91291331 11.54054712 2.80473093 10.08234132 2.6875 8.625 C2.60048828 7.40683594 2.60048828 7.40683594 2.51171875 6.1640625 C2.17009472 3.62078662 2.17009472 3.62078662 -1 2 C-0.67 1.34 -0.34 0.68 0 0 Z " fill="#7A7A5B" transform="translate(192,186)"/>
<path d="M0 0 C0.33 0.66 0.66 1.32 1 2 C1.66 2 2.32 2 3 2 C3 5 3 8 3 11 C0.69 11.33 -1.62 11.66 -4 12 C-4 8.20442119 -3.49821059 6.37097383 -2 3 C-1.01 4.485 -1.01 4.485 0 6 C-0.2784375 4.7934375 -0.2784375 4.7934375 -0.5625 3.5625 C-0.706875 2.716875 -0.85125 1.87125 -1 1 C-0.67 0.67 -0.34 0.34 0 0 Z " fill="#F42F7A" transform="translate(148,239)"/>
<path d="M0 0 C4.88609272 4.72847682 4.88609272 4.72847682 5.16796875 7.875 C5.17441406 8.57625 5.18085938 9.2775 5.1875 10 C5.20167969 10.70125 5.21585938 11.4025 5.23046875 12.125 C5 14 5 14 3 16 C3 15.34 3 14.68 3 14 C2.34 13.67 1.68 13.34 1 13 C1.09765625 10.98177083 1.1953125 8.96354167 1.29296875 6.9453125 C1.19628906 6.30335938 1.09960938 5.66140625 1 5 C0.01 4.34 -0.98 3.68 -2 3 C-2 2.34 -2 1.68 -2 1 C-1.34 0.67 -0.68 0.34 0 0 Z " fill="#BB3076" transform="translate(149,234)"/>
<path d="M0 0 C1.54613014 -0.08651631 3.08909387 -0.24002636 4.625 -0.4375 C5.44226563 -0.53933594 6.25953125 -0.64117187 7.1015625 -0.74609375 C7.72804687 -0.82988281 8.35453125 -0.91367188 9 -1 C9 -0.01 9 0.98 9 2 C7.989375 1.95875 6.97875 1.9175 5.9375 1.875 C1.95605082 2.00139521 -1.20106028 2.88266479 -5 4 C-5.66 3.67 -6.32 3.34 -7 3 C-8.32860925 2.64830932 -9.66158328 2.31229724 -11 2 C-7.54930647 -0.30046235 -3.95022851 -1.97511426 0 0 Z " fill="#733375" transform="translate(200,223)"/>
<path d="M0 0 C1.32 0.66 2.64 1.32 4 2 C4 2.99 4 3.98 4 5 C2.35 5.33 0.7 5.66 -1 6 C-1.33 8.31 -1.66 10.62 -2 13 C-2.33 13 -2.66 13 -3 13 C-3 11.35 -3 9.7 -3 8 C-4.65 8 -6.3 8 -8 8 C-6 6 -6 6 -4 5.6875 C-3.34 5.460625 -2.68 5.23375 -2 5 C-0.70339566 2.50965614 -0.70339566 2.50965614 0 0 Z " fill="#A33376" transform="translate(209,225)"/>
<path d="M0 0 C0.99 0 1.98 0 3 0 C2.690625 0.763125 2.38125 1.52625 2.0625 2.3125 C1.32106407 4.18789677 0.63771783 6.08684652 0 8 C-0.66 8 -1.32 8 -2 8 C-2 6.68 -2 5.36 -2 4 C-2.99 4 -3.98 4 -5 4 C-5.33 6.31 -5.66 8.62 -6 11 C-7.10844919 7.67465243 -6.84454356 5.37817425 -6 2 C-4.02 2 -2.04 2 0 2 C0 1.34 0 0.68 0 0 Z " fill="#F02F7B" transform="translate(125,188)"/>
<path d="M0 0 C0.33 0.99 0.66 1.98 1 3 C2.32 2.34 3.64 1.68 5 1 C4.67 1.99 4.34 2.98 4 4 C3.34 4 2.68 4 2 4 C2 4.99 2 5.98 2 7 C2.66 7 3.32 7 4 7 C4.33 8.32 4.66 9.64 5 11 C6.65 11.33 8.3 11.66 10 12 C9.01 12.495 9.01 12.495 8 13 C8 13.66 8 14.32 8 15 C3.86120317 13.62040106 3.06959453 11.79425664 1 8 C0.40819059 5.29805048 0.19126159 2.77329299 0 0 Z " fill="#963375" transform="translate(117,209)"/>
<path d="M0 0 C1.32 0 2.64 0 4 0 C4 1.32 4 2.64 4 4 C4.66 4 5.32 4 6 4 C5.67 4.66 5.34 5.32 5 6 C1.4780279 6.08004482 -1.61981469 6.04005702 -5 5 C-4.67 4.01 -4.34 3.02 -4 2 C-2.02 2.495 -2.02 2.495 0 3 C0 2.01 0 1.02 0 0 Z " fill="#D0377C" transform="translate(176,189)"/>
<path d="M0 0 C0.86882812 0.08378906 1.73765625 0.16757813 2.6328125 0.25390625 C3.78523437 0.35574219 4.93765625 0.45757812 6.125 0.5625 C7.83042969 0.71912109 7.83042969 0.71912109 9.5703125 0.87890625 C12.88897993 0.99608016 15.7562686 0.6655072 19 0 C17.14848735 2.40632132 16.19670966 2.96465163 13.15234375 3.51171875 C12.09144531 3.56972656 11.03054687 3.62773437 9.9375 3.6875 C8.87402344 3.75324219 7.81054688 3.81898438 6.71484375 3.88671875 C5.14414239 3.95225881 3.57206814 4 2 4 C1.34 2.68 0.68 1.36 0 0 Z " fill="#0B3468" transform="translate(160,194)"/>
<path d="M0 0 C1.670625 0.061875 1.670625 0.061875 3.375 0.125 C2.715 2.105 2.055 4.085 1.375 6.125 C2.035 6.455 2.695 6.785 3.375 7.125 C2.055 7.455 0.735 7.785 -0.625 8.125 C-1.625 5.125 -1.625 5.125 -0.625 2.125 C-2.275 2.125 -3.925 2.125 -5.625 2.125 C-3.625 0.125 -3.625 0.125 0 0 Z " fill="#F8347C" transform="translate(139.625,231.875)"/>
<path d="M0 0 C1.32 0.66 2.64 1.32 4 2 C3.67 2.99 3.34 3.98 3 5 C1.68 5 0.36 5 -1 5 C-1 5.66 -1 6.32 -1 7 C-1.99 6.67 -2.98 6.34 -4 6 C-3.67 4.68 -3.34 3.36 -3 2 C-2.01 2 -1.02 2 0 2 C0 1.34 0 0.68 0 0 Z " fill="#D0337B" transform="translate(144,179)"/>
<path d="M0 0 C-1.47692308 4.67692308 -1.47692308 4.67692308 -4.125 6.3125 C-5.053125 6.6528125 -5.053125 6.6528125 -6 7 C-6.66 6.01 -7.32 5.02 -8 4 C-7.34 4 -6.68 4 -6 4 C-6.33 3.01 -6.66 2.02 -7 1 C-4.53721199 -0.231394 -2.7204945 -0.07159196 0 0 Z " fill="#C9337A" transform="translate(234,209)"/>
<path d="M0 0 C2.45234885 0.98093954 3.7809268 1.68703828 5.3125 3.875 C6.1132654 6.35009306 5.86325845 7.58287634 5 10 C5 9.01 5 8.02 5 7 C4.34 7 3.68 7 3 7 C1.5 5.625 1.5 5.625 0 4 C-0.66 3.34 -1.32 2.68 -2 2 C-1.34 1.34 -0.68 0.68 0 0 Z " fill="#B6347B" transform="translate(229,197)"/>
<path d="M0 0 C4.29 0 8.58 0 13 0 C13 0.33 13 0.66 13 1 C9.7 1 6.4 1 3 1 C2.67 2.98 2.34 4.96 2 7 C1.34 7 0.68 7 0 7 C-0.33 6.01 -0.66 5.02 -1 4 C-0.34 3.67 0.32 3.34 1 3 C0.67 2.01 0.34 1.02 0 0 Z " fill="#A43677" transform="translate(130,178)"/>
<path d="M0 0 C2.64 0.33 5.28 0.66 8 1 C8 1.66 8 2.32 8 3 C6.02 3.99 4.04 4.98 2 6 C1.34 4.02 0.68 2.04 0 0 Z " fill="#B0A14D" transform="translate(182,195)"/>
<path d="M0 0 C0.66 0.33 1.32 0.66 2 1 C2 1.66 2 2.32 2 3 C3.65 3 5.3 3 7 3 C7 4.65 7 6.3 7 8 C4.5625 7.25 4.5625 7.25 2 6 C1.3125 3.9375 1.3125 3.9375 1 2 C0.34 1.67 -0.32 1.34 -1 1 C-0.67 0.67 -0.34 0.34 0 0 Z " fill="#C04379" transform="translate(201,190)"/>
<path d="M0 0 C2 2 2 2 2.125 5.125 C2.08375 6.07375 2.0425 7.0225 2 8 C0.68 7.67 -0.64 7.34 -2 7 C-2 6.01 -2 5.02 -2 4 C-2.99 3.67 -3.98 3.34 -5 3 C-3.35 2.01 -1.7 1.02 0 0 Z " fill="#F8E13A" transform="translate(193,188)"/>
<path d="M0 0 C-1.5625 2.0625 -1.5625 2.0625 -4 4 C-7.75 3.75 -7.75 3.75 -11 3 C-6.7849044 -0.23157329 -5.27490657 -1.24931998 0 0 Z " fill="#A93879" transform="translate(183,184)"/>
<path d="M0 0 C1.65 0.33 3.3 0.66 5 1 C5.25 3.3125 5.25 3.3125 5 6 C3 7.8125 3 7.8125 1 9 C0.34 8.67 -0.32 8.34 -1 8 C-0.01 7.01 0.98 6.02 2 5 C1.34 3.35 0.68 1.7 0 0 Z " fill="#103668" transform="translate(221,202)"/>
<path d="M0 0 C0.99 0 1.98 0 3 0 C4.00109515 3.31070838 4.10356134 6.30084769 4.0625 9.75 C4.05347656 10.73484375 4.04445313 11.7196875 4.03515625 12.734375 C4.02355469 13.48203125 4.01195313 14.2296875 4 15 C3.67 15 3.34 15 3 15 C2.92652344 14.06027344 2.92652344 14.06027344 2.8515625 13.1015625 C2.77679688 12.28429687 2.70203125 11.46703125 2.625 10.625 C2.55539063 9.81289062 2.48578125 9.00078125 2.4140625 8.1640625 C2.17107412 5.79665809 2.17107412 5.79665809 0 4 C0 2.68 0 1.36 0 0 Z " fill="#D93279" transform="translate(120,192)"/>
<path d="M0 0 C3.63 0.33 7.26 0.66 11 1 C10.01 1.495 10.01 1.495 9 2 C9 2.66 9 3.32 9 4 C5.625 3.6875 5.625 3.6875 2 3 C1.34 2.01 0.68 1.02 0 0 Z " fill="#BD2F77" transform="translate(125,224)"/>
<path d="M0 0 C-1.86977097 2.44710376 -2.82502483 2.96931493 -5.91796875 3.51171875 C-7.53638672 3.59873047 -7.53638672 3.59873047 -9.1875 3.6875 C-10.27417969 3.75324219 -11.36085937 3.81898438 -12.48046875 3.88671875 C-13.72763672 3.94279297 -13.72763672 3.94279297 -15 4 C-12.19836511 2.13224341 -10.11958197 1.27321694 -6.9375 0.3125 C-6.05964844 0.04050781 -5.18179688 -0.23148438 -4.27734375 -0.51171875 C-2 -1 -2 -1 0 0 Z " fill="#6C3673" transform="translate(220,212)"/>
<path d="M0 0 C0.33 0 0.66 0 1 0 C1.33 5.28 1.66 10.56 2 16 C0.68 14.35 -0.64 12.7 -2 11 C-1.34 11 -0.68 11 0 11 C-0.185625 10.29875 -0.37125 9.5975 -0.5625 8.875 C-1.05156976 5.66111302 -0.66231558 3.16439664 0 0 Z " fill="#FA337E" transform="translate(122,198)"/>
<path d="M0 0 C0.66 0 1.32 0 2 0 C2.625 3.375 2.625 3.375 3 7 C2.34 7.66 1.68 8.32 1 9 C1 8.34 1 7.68 1 7 C0.34 6.67 -0.32 6.34 -1 6 C-0.67 4.02 -0.34 2.04 0 0 Z " fill="#D32F78" transform="translate(151,241)"/>
<path d="M0 0 C0 1.32 0 2.64 0 4 C-3.68754757 3.50168276 -5.60490662 2.89932357 -8 0 C-4.94736336 -0.98120464 -3.05263664 -0.98120464 0 0 Z " fill="#B73278" transform="translate(205,217)"/>
<path d="M0 0 C0.66 0.33 1.32 0.66 2 1 C1.625 3.4375 1.625 3.4375 1 6 C0.01 6.495 0.01 6.495 -1 7 C-1.66 5.35 -2.32 3.7 -3 2 C-2.01 1.34 -1.02 0.68 0 0 Z " fill="#F3D234" transform="translate(203,198)"/>
<path d="M0 0 C0.66 0 1.32 0 2 0 C2 2.64 2 5.28 2 8 C0.68 8 -0.64 8 -2 8 C-1.34 5.36 -0.68 2.72 0 0 Z " fill="#EED739" transform="translate(186,182)"/>
<path d="M0 0 C0.66 0 1.32 0 2 0 C2.33 0.99 2.66 1.98 3 3 C0.44931155 5.35448165 -0.71017358 5.98327924 -4.25 6.1875 C-5.1575 6.125625 -6.065 6.06375 -7 6 C-7 5.67 -7 5.34 -7 5 C-5.35 5 -3.7 5 -2 5 C-1.34 3.35 -0.68 1.7 0 0 Z " fill="#BA3178" transform="translate(189,221)"/>
<path d="M0 0 C0.66 1.32 1.32 2.64 2 4 C1.01 4.33 0.02 4.66 -1 5 C-0.67 5.99 -0.34 6.98 0 8 C-0.66 8 -1.32 8 -2 8 C-2.33 5.69 -2.66 3.38 -3 1 C-2.01 0.67 -1.02 0.34 0 0 Z " fill="#AE3377" transform="translate(194,237)"/>
<path d="M0 0 C4.455 0.99 4.455 0.99 9 2 C9 2.33 9 2.66 9 3 C6.36 3.33 3.72 3.66 1 4 C0.67 2.68 0.34 1.36 0 0 Z " fill="#EF4279" transform="translate(204,197)"/>
<path d="M0 0 C2.475 0.495 2.475 0.495 5 1 C4.67 2.32 4.34 3.64 4 5 C2.68 4.67 1.36 4.34 0 4 C0 2.68 0 1.36 0 0 Z " fill="#D3357C" transform="translate(208,193)"/>
<path d="M0 0 C-0.99 1.485 -0.99 1.485 -2 3 C-3.65 2.67 -5.3 2.34 -7 2 C-7 1.34 -7 0.68 -7 0 C-4.3333581 -1.33332095 -2.83319697 -0.67102033 0 0 Z " fill="#A13978" transform="translate(162,191)"/>
<path d="M0 0 C0.66 0 1.32 0 2 0 C3 3 3 3 3 6 C2.67 6.66 2.34 7.32 2 8 C0.68 7.01 -0.64 6.02 -2 5 C-1.34 5 -0.68 5 0 5 C0 3.35 0 1.7 0 0 Z " fill="#F23782" transform="translate(149,182)"/>
<path d="M0 0 C2.125 0.375 2.125 0.375 4 1 C3.34 2.32 2.68 3.64 2 5 C1.01 5 0.02 5 -1 5 C-1.33 4.01 -1.66 3.02 -2 2 C-1.34 1.34 -0.68 0.68 0 0 Z " fill="#F52F7C" transform="translate(128,180)"/>
<path d="M0 0 C1.65 1.32 3.3 2.64 5 4 C2.69 3.67 0.38 3.34 -2 3 C-1.34 2.01 -0.68 1.02 0 0 Z " fill="#16386B" transform="translate(146,211)"/>
<path d="M0 0 C0.33 1.32 0.66 2.64 1 4 C0.01 4.33 -0.98 4.66 -2 5 C-1.34 3.35 -0.68 1.7 0 0 Z " fill="#173A6D" transform="translate(133,195)"/>
<path d="M0 0 C0.99 0.495 0.99 0.495 2 1 C2 1.66 2 2.32 2 3 C1.34 3 0.68 3 0 3 C0 2.01 0 1.02 0 0 Z " fill="#16386B" transform="translate(131,205)"/>
<path d="M0 0 C0.66 0 1.32 0 2 0 C2 0.66 2 1.32 2 2 C1.34 2 0.68 2 0 2 C0 1.34 0 0.68 0 0 Z " fill="#1A3C6E" transform="translate(142,195)"/>
<path d="M0 0 C3 1 3 1 3 1 Z " fill="#16396B" transform="translate(149,207)"/>
<path d="M0 0 C3 1 3 1 3 1 Z " fill="#14376A" transform="translate(158,200)"/>
<path d="M0 0 C2 1 2 1 2 1 Z " fill="#143467" transform="translate(155,214)"/>
<path d="" fill="#0E3469" transform="translate(0,0)"/>
<path d="" fill="#193A6C" transform="translate(0,0)"/>
<path d="" fill="#1B3B6E" transform="translate(0,0)"/>
<path d="" fill="#183666" transform="translate(0,0)"/>
<path d="" fill="#173A6D" transform="translate(0,0)"/>
</svg>
